<svg id="Layer_1" data-name="Layer 1" xmlns="http://www.w3.org/2000/svg" width="180.2" height="238.42" viewBox="0 0 180.2 238.42"><path d="M5.64,15.88A26.93,26.93,0,0,1,2.13,8a15.89,15.89,0,0,1-.69-3.86c0-.43-.05-1.16.28-1.5.8-.83,1.77.56,2.24,1.08A25.83,25.83,0,0,0,17.14,11.1c5.79,1.44,11.86,1.57,17.79,1.7q9.43.21,18.86-.25c3.18-.15,6.36-.37,9.53-.64,2.54-.22,5.48-.94,8-.37,2.91.65,2.9,3.78.85,5.48s-5,1.66-7.45,2.2a9.65,9.65,0,0,0-5.94,3.71c-1.84,2.29-4.15,2.91-7,3-6.11.18-12.27-.08-18.39-.13s-13.73.61-18.84-3.7A10.89,10.89,0,0,1,12,18.84a13.74,13.74,0,0,0-2.15-3.41C8.35,14,5.87,13.44,4.27,15c-.7.67.37,1.73,1.06,1.06,1-1,2.55-.38,3.43.46,1.06,1,1.56,2.54,2.29,3.78a12.77,12.77,0,0,0,5.66,4.95c5.65,2.64,12.33,2,18.39,2.1l10.07.08a58.74,58.74,0,0,0,8.9-.16,9.72,9.72,0,0,0,3.33-1,10.71,10.71,0,0,0,3-2.88c2-2.45,5-2.66,7.89-3.21,2.37-.45,4.87-1.28,6.18-3.46a4.3,4.3,0,0,0-.51-5.47C72.29,9.68,69.77,9.8,67.71,10c-3.41.33-6.83.63-10.25.85-6.84.43-13.71.59-20.57.49-6.58-.1-13.4-.12-19.81-1.8a26.9,26.9,0,0,1-8.92-4A23.63,23.63,0,0,1,4.64,2.23C3.83,1.36,2.71.51,1.46,1-.89,1.94,0,5.55.43,7.35a28.22,28.22,0,0,0,3.92,9.29c.52.8,1.82.05,1.29-.76Z"/><path d="M3.66,16.17A631.54,631.54,0,0,0,17.57,80.43q2.45,9,5.16,18c.28.92,1.73.53,1.45-.4A636.05,636.05,0,0,1,8.37,34.17Q6.6,25,5.1,15.78c-.15-1-1.6-.55-1.44.39Z"/><path d="M8.63,15.44,26.12,77.59l4.93,17.52a.75.75,0,0,0,1.44-.4L15,32.56,10.07,15a.75.75,0,0,0-1.44.4Z"/><path d="M17.12,24.23c-3.18,3.07-1.29,7.79-.29,11.39l3.9,14.12,7.86,28.47,4.43,16a.75.75,0,0,0,1.45-.4L19.66,40.25c-.7-2.55-1.41-5.1-2.11-7.66s-1.41-5.33.63-7.3c.7-.68-.37-1.74-1.06-1.06Z"/><path d="M17.67,25.88c2.82,3,3.53,7.44,4.55,11.31l3.47,13.27,7.07,27,4,15.19a.75.75,0,0,0,1.45-.39Q31,64.65,23.73,37c-1.11-4.23-1.92-8.9-5-12.21-.66-.71-1.72.35-1.06,1.06Z"/><path d="M25,26.72a82.91,82.91,0,0,0,2,12.33l2.85,13.1,5.67,26L38.71,93c.2.94,1.65.55,1.44-.4Q34.54,66.82,28.92,41.06a96.81,96.81,0,0,1-2.46-14.34c-.06-1-1.56-1-1.5,0Z"/><path d="M28.63,26.76l11.66,51,3.33,14.57c.21.94,1.66.54,1.44-.4l-11.66-51L30.07,26.36c-.21-.94-1.66-.54-1.44.4Z"/><path d="M36.83,27,44,78.36l2,14.51c.13.95,1.57.55,1.44-.4L40.31,41.08l-2-14.51c-.14-1-1.58-.55-1.45.4Z"/><path d="M40.37,26.84l7.92,51.27,2.23,14.47c.15,1,1.6.55,1.45-.4L44.05,40.92,41.82,26.44c-.15-1-1.59-.54-1.45.4Z"/><path d="M51.15,27,54.32,78l.91,14.69c.06,1,1.56,1,1.5,0L53.56,41.65,52.65,27c-.06-1-1.56-1-1.5,0Z"/><path d="M54.83,26.39l4,51.05,1.13,14.69c.08,1,1.58,1,1.5,0l-3.94-51L56.33,26.39c-.07-.95-1.57-1-1.5,0Z"/><path d="M65.52,19.71l-.87,56.44-.25,16a.75.75,0,0,0,1.5,0l.87-56.43.25-16a.75.75,0,0,0-1.5,0Z"/><path d="M68.79,19.43q2.23,27.93,2.7,56,.14,7.93.12,15.87a.75.75,0,0,0,1.5,0q0-28-1.69-56-.49-7.92-1.13-15.83c-.08-1-1.58-1-1.5,0Z"/><path d="M25.52,100.31a21.41,21.41,0,0,1,2.14-3,8.54,8.54,0,0,1,3.76-2,56.1,56.1,0,0,1,8.12-1.52,185.44,185.44,0,0,1,18.84-1.55c12.84-.71,25.7-1.1,38.56-1,7.32,0,14.64.22,22,.58,1,0,1-1.46,0-1.5-13.5-.66-27-.73-40.54-.37q-10,.27-20,.83c-6.28.34-12.64.51-18.84,1.54-3.11.52-6.31.76-9.3,1.84a9.26,9.26,0,0,0-3.64,2.17,25.52,25.52,0,0,0-2.38,3.27c-.54.79.76,1.55,1.3.75Z"/><path d="M137.72,94.33c1.17.55,2.42.89,3.58,1.44a3.23,3.23,0,0,1,1.24.88c.58.83-.12,1.81-.75,2.43-1.25,1.21-3.09,1.11-4.72,1.29-2,.22-3.95.44-5.92.64-7.14.76-14.3,1.42-21.46,1.94a377.42,377.42,0,0,1-42.14.89c-7.06-.28-14.12-1.19-21.15-1.83s-13.82-1.18-20.75-1.33c-2.08,0-4.24-.22-6.17.7A4.19,4.19,0,0,0,17,105.66a8.05,8.05,0,0,0,1.53,3.43,8.15,8.15,0,0,0,2.62,2.67c1.25.72,3.21.7,4.63.88q2.69.35,5.37.54c8.13.61,16.29.35,24.43.52,4.08.09,8.16.28,12.21.74,1.07.12,2.15.26,3.22.42a5.24,5.24,0,0,1,2.88,1,24.57,24.57,0,0,1,2.71,3.22c.63.74,1.68-.33,1.06-1.06s-1.36-1.89-2.18-2.72a8.09,8.09,0,0,0-1.27-1.07,6.6,6.6,0,0,0-2.8-.79c-3.47-.52-7-.84-10.46-1-7.16-.37-14.33-.19-21.49-.34-3.59-.07-7.18-.23-10.75-.58-1.88-.18-3.8-.37-5.66-.73s-2.74-1.53-3.62-3.06c-.66-1.14-1.38-2.46-.66-3.75a3.8,3.8,0,0,1,2.46-1.57,9.91,9.91,0,0,1,2.61-.21c1.86,0,3.71.07,5.57.15,14,.57,27.8,2.77,41.75,3.16a398,398,0,0,0,42.44-1.3c8.18-.65,16.35-1.48,24.5-2.4,1.51-.17,2.95-.2,4.22-1.13a4.9,4.9,0,0,0,2-3.39c.19-2.6-4.16-3.41-5.84-4.21-.87-.41-1.63.88-.76,1.3Z"/><path d="M141.94,165.24q1.51,6.69,3,13.37c.21.94,1.66.55,1.45-.4q-1.5-6.69-3-13.37c-.22-.94-1.67-.54-1.45.4Z"/><path d="M145.39,101.83c4.89,8.54-11.77,9.35-16.54,9.54q-2.67.1-5.34,0l.53,1.28c2.77-3.22,5.77,1.89,6.52,4.25,1.37,4.24,2.07,8.67,3.11,13q3.36,14,6.59,28c.21.94,1.66.55,1.44-.39q-2.87-12.45-5.84-24.87c-.91-3.83-1.72-7.69-2.62-11.53-.69-3-1.33-6.32-3.4-8.71-1.86-2.15-4.75-3.21-6.86-.77a.76.76,0,0,0,.53,1.28,72,72,0,0,0,12.36-.65c3.73-.53,9.26-1.42,11.34-5,1.15-2,.55-4.25-.52-6.13a.75.75,0,0,0-1.3.76Z"/><path d="M141.88,165.71c2.55,13.74,6.3,27.21,9.92,40.7a22.1,22.1,0,0,1,.8,7.37c-.07.89-.2,1.88-1.13,2.21a3.57,3.57,0,0,1-3-.22c-2.86-1.65-3.19-5.55-3.95-8.44-.92-3.48-1.81-7-2.69-10.47-3.41-13.72-6.52-27.51-9.83-41.26-1.63-6.75-3.31-13.48-5.1-20.19q-1.37-5.13-2.84-10.25-.73-2.56-1.5-5.11c-.23-.77-.47-1.54-.7-2.31a9.08,9.08,0,0,0-.8-2.49c-.36-.5-1.15-.61-1.7-.8-.83-.27-1.67-.5-2.52-.7a33.81,33.81,0,0,0-4.89-.76,60.48,60.48,0,0,0-10.93.22c-7.41.7-14.78,2-22.24,1.41l.53,1.28a2.58,2.58,0,0,1,1.31-.77c.32-.08.79,0,1.07-.08l.15,0c-.23-.21-.24-.52,0-.93a3.65,3.65,0,0,0-.35.14c-.85,0-1.83.27-2.7.32l.53,1.28a4,4,0,0,1,5.83-.5c.71.66,1.77-.4,1.06-1.06a5.51,5.51,0,0,0-8,.5.76.76,0,0,0,.54,1.28c1.12-.06,2.81,0,3.8-.66a.94.94,0,0,0,.15-1.57c-1.24-1-3.57,0-4.49,1a.76.76,0,0,0,.54,1.28c13.72,1,28.09-4.76,41.44.23l-.53-.53c7,22.55,12.11,45.63,17.58,68.59q2,8.58,4.2,17.13c.72,2.86,1.47,5.72,2.23,8.57.6,2.24,1.06,4.45,2.84,6.08a5,5,0,0,0,4.52,1.43c1.34-.31,2.3-.71,2.77-2.12a13.71,13.71,0,0,0,.24-5,12.45,12.45,0,0,0-.28-2.59c-.4-1.5-.81-3-1.21-4.52-3.4-12.61-6.84-25.23-9.22-38.09-.18-.95-1.63-.55-1.45.4Z"/><path d="M85.72,115.17c2,26.35,3.63,52.74,5.26,79.12q.67,11.06,1.38,22.11c.06,1,1.56,1,1.5,0-1.68-26.29-3.2-52.6-5-78.88q-.78-11.18-1.63-22.35c-.07-1-1.58-1-1.5,0Z"/><path d="M81.09,169c-.68-9.8-1.32-19.6-1.53-29.42a.75.75,0,0,0-1.5,0c.21,9.82.85,19.62,1.53,29.42.07.95,1.57,1,1.5,0Z"/><path d="M92.84,225.6c.16,2.48,1.37,12.26-3.77,9.87-2.32-1.08-3-3.24-3.71-5.5a23.65,23.65,0,0,1-.86-7.49c-.14-10.79-1.28-21.52-2.17-32.26-.49-5.93-.89-11.87-1-17.83a.75.75,0,0,0-1.5,0c.23,12.16,1.68,24.24,2.54,36.36.22,3.1.41,6.21.52,9.31.11,2.88-.09,5.84.2,8.7a15.3,15.3,0,0,0,.76,3.41,20.39,20.39,0,0,0,1.4,3.83,6.9,6.9,0,0,0,4.83,3.31c2.36.29,3.67-1.8,4.24-3.84.71-2.56.19-5.27,0-7.87-.07-1-1.57-1-1.5,0Z"/><path d="M44.78,112.29,26,193.49l-5.28,22.85c-.21.94,1.23,1.34,1.45.4l18.76-81.2,5.28-22.85c.22-.94-1.22-1.34-1.44-.4Z"/><path d="M21.43,215.21A6,6,0,0,1,14.36,217l.52.92q7.83-37.68,15.64-75.38L35,121c.2-.94-1.25-1.34-1.44-.4Q25.73,158.26,17.9,196l-4.46,21.54a.78.78,0,0,0,.52.92,7.44,7.44,0,0,0,8.53-2.14c.61-.74-.45-1.81-1.06-1.06Z"/><path d="M34.74,121.27l2-8.34c.22-.94-1.22-1.34-1.45-.4l-2,8.34c-.23.94,1.22,1.34,1.44.4Z"/><path d="M94.28,225.41l-.38-9c0-1-1.54-1-1.5,0l.38,9c0,1,1.54,1,1.5,0Z"/><path d="M140.27,158.09a73.46,73.46,0,0,1,1.64,7.63.75.75,0,0,0,.92.52.77.77,0,0,0,.53-.92,71,71,0,0,0-1.65-7.63.75.75,0,0,0-1.44.4Z"/><path d="M79.82,172.38c-1,7-.45,14-.84,20.94a29.61,29.61,0,0,1-.83,7.15c-.73,2.33-2.65,2.32-4.73,1.7a.75.75,0,0,0-.4,1.44c2,.59,4.32.84,5.71-1s1.35-4.12,1.51-6.14c.66-7.88-.16-15.88,1-23.72.14-.94-1.3-1.35-1.45-.4Z"/><path d="M73.52,203.32l3.29-67.24.93-18.93c.05-1-1.45-1-1.5,0L73,184.39,72,203.32c0,1,1.45,1,1.5,0Z"/><path d="M79.52,133.8l-1-14.08c-.07-1-1.57-1-1.5,0l1,14.08c.07,1,1.57,1,1.5,0Z"/><path d="M81.62,116.19l1.49-.16a1.15,1.15,0,0,0,.58-.13,1,1,0,0,0,.48-.31,1.14,1.14,0,0,0,.31-.48,1.06,1.06,0,0,0,.13-.58l0-.4a1.49,1.49,0,0,0-.39-.66l-.3-.24a1.54,1.54,0,0,0-.76-.2l-1.49.16a1.08,1.08,0,0,0-.58.13,1.14,1.14,0,0,0-.48.31,1,1,0,0,0-.31.48,1.15,1.15,0,0,0-.13.58l.06.4a1.57,1.57,0,0,0,.38.66l.3.23a1.48,1.48,0,0,0,.76.21Z"/><path d="M78,134l0,5.66a.75.75,0,0,0,1.5,0l0-5.66a.75.75,0,0,0-1.5,0Z"/><path d="M79.57,169.1a39.84,39.84,0,0,1,.19,4.22.74.74,0,0,0,.75.75.76.76,0,0,0,.75-.75,39.84,39.84,0,0,0-.19-4.22.75.75,0,0,0-1.5,0Z"/><path d="M138.09,92.72c-6.22-1.18-12.53-1.79-18.84-2.39-1-.09-1,1.41,0,1.5,6.17.59,12.35,1.18,18.44,2.34.95.18,1.35-1.27.4-1.45Z"/><path d="M83.53,21.31h9.41v2.06H85.79v6.34H92.4v2H85.79v8.64H83.53Z"/><path d="M105.67,36.65c0,1.41,0,2.66.11,3.74h-2l-.13-2.24h-.06a4.66,4.66,0,0,1-4.14,2.55c-2,0-4.33-1.19-4.33-6v-8h2.28v7.58c0,2.61.72,4.36,2.8,4.36a3.34,3.34,0,0,0,3-2.26,4,4,0,0,0,.2-1.28v-8.4h2.28Z"/><path d="M109.46,31c0-1.61,0-3-.1-4.27h2l.08,2.68h.1a3.86,3.86,0,0,1,3.48-3,2.17,2.17,0,0,1,.65.09v2.35a3,3,0,0,0-.78-.09c-1.61,0-2.75,1.33-3.06,3.2a8,8,0,0,0-.1,1.16v7.31h-2.26Z"/><path d="M118,30.39c0-1.41,0-2.57-.1-3.7h2l.13,2.26h0a4.58,4.58,0,0,1,4.15-2.58c1.74,0,4.43,1.14,4.43,5.84v8.18h-2.28v-7.9c0-2.21-.75-4.05-2.9-4.05A3.3,3.3,0,0,0,120.48,31a4,4,0,0,0-.16,1.16v8.24H118Z"/><path d="M135,22.84a1.41,1.41,0,0,1-1.45,1.53,1.43,1.43,0,0,1-1.37-1.53,1.46,1.46,0,0,1,1.42-1.56A1.42,1.42,0,0,1,135,22.84Zm-2.54,17.55V26.69h2.28v13.7Z"/><path d="M141.25,22.75v3.94h3.26v1.89h-3.26V36c0,1.7.44,2.66,1.71,2.66a4.53,4.53,0,0,0,1.32-.17l.1,1.87a5.12,5.12,0,0,1-2,.34,3,3,0,0,1-2.46-1.05,5.39,5.39,0,0,1-.88-3.57V28.58h-2V26.69h2V23.4Z"/><path d="M157.58,36.65c0,1.41,0,2.66.1,3.74h-2l-.13-2.24h-.05a4.69,4.69,0,0,1-4.15,2.55c-2,0-4.33-1.19-4.33-6v-8h2.28v7.58c0,2.61.73,4.36,2.8,4.36a3.33,3.33,0,0,0,3-2.26,4,4,0,0,0,.21-1.28v-8.4h2.28Z"/><path d="M161.36,31c0-1.61,0-3-.1-4.27h2l.07,2.68h.11a3.85,3.85,0,0,1,3.47-3,2.17,2.17,0,0,1,.65.09v2.35a3,3,0,0,0-.78-.09c-1.6,0-2.75,1.33-3.06,3.2a8,8,0,0,0-.1,1.16v7.31h-2.26Z"/><path d="M170.85,34c.06,3.37,2,4.75,4.31,4.75a7.72,7.72,0,0,0,3.47-.7l.39,1.78a9.36,9.36,0,0,1-4.17.85c-3.87,0-6.17-2.78-6.17-6.91s2.23-7.39,5.88-7.39c4.1,0,5.19,3.94,5.19,6.46,0,.51-.06.9-.08,1.16Zm6.69-1.78c0-1.59-.59-4.05-3.16-4.05-2.31,0-3.32,2.32-3.5,4.05Z"/><path d="M95.22,77.49v-8.3H81.31V66.47L94.66,47H99V66h4.19v3.24H99v8.3Zm0-11.54V55.77c0-1.6,0-3.19.13-4.79h-.13c-.93,1.78-1.66,3.1-2.49,4.51L85.41,65.86V66Z"/><path d="M111.49,59.11l3.21,7.43c.33.83.69,1.82.94,2.58h.06c.27-.76.57-1.72.93-2.63l2.91-7.38h2.81l-4,9c-1.91,4.31-3.21,6.52-5,7.87a7.78,7.78,0,0,1-3.27,1.49l-.66-1.93a7.19,7.19,0,0,0,2.32-1.12A7,7,0,0,0,114,71.85a1.55,1.55,0,0,0,.21-.55,1.82,1.82,0,0,0-.18-.6l-5.41-11.59Z"/><path d="M137.72,65.29C137.72,70,134,72,130.43,72c-4,0-7-2.5-7-6.48,0-4.21,3.21-6.68,7.26-6.68C134.87,58.82,137.72,61.45,137.72,65.29Zm-11.62.13a4.52,4.52,0,0,0,4.45,4.84c2.54,0,4.45-2.05,4.45-4.89,0-2.13-1.24-4.83-4.39-4.83S126.1,63,126.1,65.42Z"/><path d="M153.33,68.26c0,1.3,0,2.44.12,3.43h-2.36l-.15-2h-.06A5.72,5.72,0,0,1,146,72c-2.3,0-5-1.1-5-5.52V59.11h2.66v7c0,2.4.84,4,3.26,4A3.86,3.86,0,0,0,150.42,68a3,3,0,0,0,.24-1.17V59.11h2.67Z"/></svg>